<svg id="Layer_1" data-name="Layer 1" xmlns="http://www.w3.org/2000/svg" xmlns:xlink="http://www.w3.org/1999/xlink" viewBox="0 0 1946.55 1094.14"><defs><style>.cls-1,.cls-16{fill:#028090;}.cls-1{stroke:#114b5f;stroke-width:11px;}.cls-1,.cls-10,.cls-13,.cls-3,.cls-4{stroke-miterlimit:10;}.cls-2{fill:url(#linear-gradient);}.cls-10,.cls-13,.cls-3{fill:none;}.cls-13,.cls-3{stroke:#456990;}.cls-3{stroke-width:42px;}.cls-11,.cls-4{fill:#456990;}.cls-4{stroke:#000;}.cls-13,.cls-4{stroke-width:8px;}.cls-5{fill:#e4fde1;}.cls-6{fill:url(#linear-gradient-2);}.cls-7{fill:url(#linear-gradient-3);}.cls-8{fill:#2dc377;}.cls-9{fill:#fff;}.cls-10{stroke:#fff;stroke-width:6px;}.cls-12{fill:#6995cf;}.cls-14{fill:url(#linear-gradient-4);}.cls-15{fill:#006837;}.cls-17{fill:url(#linear-gradient-5);}</style><linearGradient id="linear-gradient" x1="1050.13" y1="394.9" x2="1050.13" y2="810.82" gradientUnits="userSpaceOnUse"><stop offset="0" stop-color="#028090"/><stop offset="0.03" stop-color="#028090" stop-opacity="0.87"/><stop offset="0.1" stop-color="#028090" stop-opacity="0.64"/><stop offset="0.18" stop-color="#028090" stop-opacity="0.44"/><stop offset="0.27" stop-color="#028090" stop-opacity="0.28"/><stop offset="0.37" stop-color="#028090" stop-opacity="0.15"/><stop offset="0.49" stop-color="#028090" stop-opacity="0.07"/><stop offset="0.65" stop-color="#028090" stop-opacity="0.01"/><stop offset="1" stop-color="#028090" stop-opacity="0"/></linearGradient><linearGradient id="linear-gradient-2" x1="1067.21" y1="590.37" x2="1067.21" y2="891.67" gradientUnits="userSpaceOnUse"><stop offset="0"/><stop offset="0.86" stop-opacity="0.53"/><stop offset="1" stop-opacity="0"/></linearGradient><linearGradient id="linear-gradient-3" x1="774" y1="87" x2="1262" y2="87" gradientTransform="matrix(-0.82, 0, 0, 1, 1514.2, 0)" gradientUnits="userSpaceOnUse"><stop offset="0" stop-opacity="0"/><stop offset="0.63"/></linearGradient><linearGradient id="linear-gradient-4" x1="1086.15" y1="717.4" x2="1364.93" y2="717.4" xlink:href="#linear-gradient-3"/><linearGradient id="linear-gradient-5" x1="1293.23" y1="775.69" x2="1293.23" y2="887.43" gradientUnits="userSpaceOnUse"><stop offset="0.28" stop-opacity="0"/><stop offset="1" stop-color="#028090" stop-opacity="0.4"/></linearGradient></defs><title>Circut 1</title><rect x="0.5" y="0.5" width="1945.55" height="1093.14"/><path d="M1418.83,1V1093.14H-525.72V1H1418.83m1-1H-526.72V1094.14H1419.83V0Z" transform="translate(526.72 0)"/><ellipse class="cls-1" cx="1050.13" cy="885.92" rx="377.4" ry="42.96"/><polyline class="cls-2" points="672.73 778.72 672.73 394.9 1427.53 394.9 1427.53 810.82"/><path class="cls-3" d="M-.68,63H489.16c29.94,0,54.21,21.46,54.21,47.93V209" transform="translate(526.72 0)"/><path class="cls-4" d="M796.13,183.42h508a123.4,123.4,0,0,1,123.4,123.4v77.6a0,0,0,0,1,0,0H672.72a0,0,0,0,1,0,0v-77.6A123.4,123.4,0,0,1,796.13,183.42Z"/><rect class="cls-5" x="743.82" y="232.97" width="393.82" height="101.91" rx="50.95" ry="50.95"/><rect class="cls-5" x="-14.69" y="50.31" width="492.97" height="12.69" rx="6.34" ry="6.34" transform="translate(990.31 113.31) rotate(-180)"/><path d="M849.61,896.21,443.74,931.8c-19.6,1.72-46.36-.25-59.77-4.4L225.24,878.28c-13.41-4.15-8.39-8.91,11.21-10.63l405.88-35.59c19.6-1.72,46.36.25,59.76,4.4l158.74,49.12C874.23,889.73,869.21,894.49,849.61,896.21Z" transform="translate(526.72 0)"/><polygon class="cls-6" points="1394.44 891.67 746.85 876.21 739.98 590.37 1394.44 717.4 1394.44 891.67"/><path d="M1014.81,455.25l15.17-6.9c5.4-2.46,13.23-.68,17.5,4L1065.57,472c4.26,4.65,3.35,10.4-2,12.86l-15.17,6.89c-5.4,2.46-13.23.68-17.5-4l-18.09-19.69C1008.5,463.46,1009.41,457.7,1014.81,455.25Z" transform="translate(526.72 0)"/><path d="M985.26,788.27l31.53-5.82c11.22-2.07,27.51-.57,36.38,3.35l37.59,16.6c8.87,3.91,7,8.76-4.26,10.83L1055,819.05c-11.22,2.07-27.5.57-36.37-3.34L981,799.11C972.13,795.19,974,790.34,985.26,788.27Z" transform="translate(526.72 0)"/><rect class="cls-7" x="482.72" y="21" width="398.86" height="132"/><path class="cls-8" d="M850,735.49,446.12,869.86c-19.51,6.49-46.19-3.91-59.61-23.23L227.68,617.87c-13.42-19.32-8.48-40.24,11-46.73L642.58,436.77c19.5-6.49,46.19,3.91,59.61,23.24L861,688.76C874.44,708.08,869.5,729,850,735.49Z" transform="translate(526.72 0)"/><ellipse class="cls-9" cx="401.09" cy="544.92" rx="5.72" ry="7.88" transform="translate(254.52 611.92) rotate(-59.33)"/><ellipse class="cls-9" cx="424.63" cy="537.09" rx="5.72" ry="7.88" transform="translate(272.79 628.33) rotate(-59.33)"/><ellipse class="cls-9" cx="380.26" cy="551.85" rx="5.72" ry="7.88" transform="translate(238.35 597.4) rotate(-59.33)"/><path class="cls-9" d="M632.45,675.8a12.51,12.51,0,0,1,9.51,5.14l17.75,25.57c1.23,1.77,1.4,3.23,1.14,4-.06.21-.27.82-1.48,1.22l-39.51,13.15a6.18,6.18,0,0,1-1.94.28,12.5,12.5,0,0,1-9.51-5.13l-17.76-25.58c-1.23-1.77-1.4-3.22-1.14-4,.07-.2.27-.82,1.48-1.22l39.52-13.15a6.44,6.44,0,0,1,1.94-.28m0-6a12.2,12.2,0,0,0-3.84.59L589.1,683.54c-6,2-7.49,8.4-3.38,14.32l17.76,25.58a18.42,18.42,0,0,0,14.44,7.71,12.18,12.18,0,0,0,3.83-.59l39.51-13.15c6-2,7.49-8.4,3.38-14.32l-17.76-25.58a18.43,18.43,0,0,0-14.43-7.71Z" transform="translate(526.72 0)"/><path class="cls-9" d="M595.79,623a12.51,12.51,0,0,1,9.51,5.14l17.75,25.57c1.23,1.78,1.4,3.23,1.14,4-.06.2-.27.81-1.48,1.21L583.2,672.07a6.14,6.14,0,0,1-1.94.28,12.5,12.5,0,0,1-9.51-5.13L554,641.64c-1.23-1.77-1.4-3.22-1.14-4,.07-.2.27-.81,1.48-1.22l39.52-13.14a6.13,6.13,0,0,1,1.94-.29m0-6a12.2,12.2,0,0,0-3.84.59l-39.51,13.15c-6,2-7.49,8.4-3.38,14.32l17.76,25.58a18.42,18.42,0,0,0,14.44,7.71,12.18,12.18,0,0,0,3.83-.59l39.51-13.14c6-2,7.5-8.41,3.38-14.33l-17.76-25.57A18.41,18.41,0,0,0,595.79,617Z" transform="translate(526.72 0)"/><path class="cls-9" d="M559.13,570.2a12.51,12.51,0,0,1,9.51,5.14l17.75,25.58c1.23,1.77,1.4,3.22,1.14,4-.06.2-.27.81-1.48,1.22l-39.51,13.14a6.13,6.13,0,0,1-1.94.29,12.48,12.48,0,0,1-9.51-5.14l-17.76-25.57c-1.23-1.78-1.4-3.23-1.14-4,.07-.2.27-.81,1.48-1.21l39.52-13.15a6.13,6.13,0,0,1,1.94-.29m0-6a12.2,12.2,0,0,0-3.84.6l-39.51,13.14c-6,2-7.49,8.4-3.38,14.33l17.76,25.57a18.43,18.43,0,0,0,14.44,7.72,12.18,12.18,0,0,0,3.83-.59l39.51-13.15c6-2,7.5-8.4,3.38-14.33l-17.76-25.57a18.41,18.41,0,0,0-14.43-7.72Z" transform="translate(526.72 0)"/><ellipse class="cls-10" cx="326.87" cy="651.33" rx="22.03" ry="30.35" transform="matrix(0.51, -0.86, 0.86, 0.51, 126.64, 600.21)"/><path class="cls-9" d="M484.46,633.78l46.53,67L440.07,731l-46.52-67,90.91-30.25m2.37-7.11L384.05,660.86l53.66,77.28L540.49,704l-53.66-77.28Z" transform="translate(526.72 0)"/><path class="cls-9" d="M477.6,654.85l25.33,36.48-56,18.63-25.33-36.48,56-18.63m2.37-7.11-67.86,22.58,32.46,46.75,67.86-22.58L480,647.74Z" transform="translate(526.72 0)"/><line class="cls-10" x1="1177.21" y1="736.92" x2="1168.23" y2="723.99"/><polyline class="cls-10" points="1050.74 808.65 1031.42 815.08 1040.44 828.07 1019 835.2"/><polyline class="cls-10" points="885 738.07 853.89 748.75 878.18 783.74 1076.56 717.4 1087.93 733.78 933.83 785.05 945.21 801.44 1099.31 750.17 1112.49 769.15 961.36 819.43 971.46 833.99 1122.59 783.71 1143.09 813.22"/><polyline class="cls-10" points="1183.72 592.4 1149.07 542.49 1108.73 555.91 1096.04 537.62 1068.74 546.7 1037.11 501.14 1064.4 492.06 1080.73 515.58 1209.1 472.87 1198.94 515.95 1216.53 510.1 1206.5 552.59 1223.64 546.89 1211.97 596.36 1311.81 740.94 1291.1 747.83 1242.22 676.64 1206 688.69 1227.8 720.09 1128.55 753.11 996.5 562.93 930.03 585.04 953.08 618.24 877.01 643.54"/><polyline class="cls-10" points="1109.17 584.71 1140.94 574.13 1177.61 626.93 1145.83 637.5"/><line class="cls-10" x1="927.86" y1="545.08" x2="951.99" y2="537.05"/><line class="cls-10" x1="908.23" y1="553.65" x2="930.03" y2="585.04"/><polygon points="1247.22 561.39 1265.69 555.25 1372.5 709.07 1354.03 715.22 1247.22 561.39"/><path d="M738.77,555.84,845,708.81l-17.48,5.81-106.21-153,17.48-5.81m.39-1.19-19.46,6.48L827.11,715.81l19.46-6.47L739.16,554.65Z" transform="translate(526.72 0)"/><polygon class="cls-11" points="812.09 649.42 738 674.07 704.96 626.49 779.05 601.84 812.09 649.42"/><polygon class="cls-12" points="812.09 677.14 738 701.79 738 674.07 812.09 649.42 812.09 677.14"/><polygon class="cls-11" points="727.52 680.8 694.33 691.84 677.09 667.01 710.28 655.97 727.52 680.8"/><polygon class="cls-12" points="725.08 689.7 691.89 700.74 691.89 688.33 725.08 677.28 725.08 689.7"/><path class="cls-13" d="M-96.84,699.87s45.34,53.88,242.84-8" transform="translate(526.72 0)"/><rect class="cls-14" x="398.59" y="569.98" width="227.86" height="294.84"/><polygon class="cls-15" points="1265.88 554.65 1265.88 569.98 1365.78 711.84 1373.29 709.34 1265.88 554.65"/><polygon class="cls-16" points="1239.62 861.59 1253.93 860.15 1346.85 887.43 1332.53 888.87 1239.62 861.59"/><polygon class="cls-17" points="1346.85 775.69 1346.85 887.43 1239.62 861.59 1239.62 782.96 1346.85 775.69"/></svg>