<svg id="Layer_1" data-name="Layer 1" xmlns="http://www.w3.org/2000/svg" xmlns:xlink="http://www.w3.org/1999/xlink" viewBox="0 0 1946.55 1094.14"><defs><style>.cls-1,.cls-3,.cls-4{fill:#f45b69;}.cls-1{stroke:#4d1920;stroke-width:11px;}.cls-1,.cls-10,.cls-3,.cls-5,.cls-6,.cls-7,.cls-9{stroke-miterlimit:10;}.cls-2{fill:url(#linear-gradient);}.cls-10,.cls-3,.cls-5,.cls-6,.cls-7{stroke:#000;}.cls-3,.cls-5{stroke-width:9px;}.cls-5{fill:url(#linear-gradient-2);}.cls-6{fill:#2e1215;stroke-width:10px;}.cls-8{fill:url(#linear-gradient-3);}.cls-9{fill:none;stroke:#114b5f;stroke-width:42px;}.cls-10{fill:#114b5f;stroke-width:8px;}.cls-11{fill:#028090;}.cls-12{fill:url(#linear-gradient-4);}</style><linearGradient id="linear-gradient" x1="523.4" y1="394.9" x2="523.4" y2="778.72" gradientUnits="userSpaceOnUse"><stop offset="0" stop-color="#f45b69"/><stop offset="0.04" stop-color="#f45b69" stop-opacity="0.86"/><stop offset="0.09" stop-color="#f45b69" stop-opacity="0.68"/><stop offset="0.15" stop-color="#f45b69" stop-opacity="0.52"/><stop offset="0.21" stop-color="#f45b69" stop-opacity="0.38"/><stop offset="0.28" stop-color="#f45b69" stop-opacity="0.26"/><stop offset="0.36" stop-color="#f45b69" stop-opacity="0.16"/><stop offset="0.45" stop-color="#f45b69" stop-opacity="0.09"/><stop offset="0.55" stop-color="#f45b69" stop-opacity="0.04"/><stop offset="0.69" stop-color="#f45b69" stop-opacity="0.01"/><stop offset="1" stop-color="#f45b69" stop-opacity="0"/></linearGradient><linearGradient id="linear-gradient-2" x1="1127.21" y1="555.41" x2="1623.07" y2="555.41" gradientUnits="userSpaceOnUse"><stop offset="0" stop-color="#f45b69"/><stop offset="0.13" stop-color="#f45b69" stop-opacity="0.83"/><stop offset="0.37" stop-color="#f45b69" stop-opacity="0.54"/><stop offset="0.58" stop-color="#f45b69" stop-opacity="0.31"/><stop offset="0.77" stop-color="#f45b69" stop-opacity="0.14"/><stop offset="0.91" stop-color="#f45b69" stop-opacity="0.04"/><stop offset="1" stop-color="#f45b69" stop-opacity="0"/></linearGradient><linearGradient id="linear-gradient-3" x1="1129.68" y1="772.15" x2="1180.1" y2="801.26" gradientUnits="userSpaceOnUse"><stop offset="0.18" stop-opacity="0"/><stop offset="0.64"/></linearGradient><linearGradient id="linear-gradient-4" x1="1300.72" y1="87" x2="1788.72" y2="87" gradientUnits="userSpaceOnUse"><stop offset="0" stop-opacity="0"/><stop offset="0.63"/></linearGradient></defs><title>wrench2</title><rect x="0.5" y="0.5" width="1945.55" height="1093.14"/><path d="M1418.83,1V1093.14H-525.72V1H1418.83m1-1H-526.72V1094.14H1419.83V0Z" transform="translate(526.72 0)"/><ellipse class="cls-1" cx="1050.13" cy="885.92" rx="377.4" ry="42.96"/><path class="cls-2" d="M848.54,778.72H146V394.9H900.81v102L683.72,595.58C683.72,624.45,877.41,778.72,848.54,778.72Z" transform="translate(526.72 0)"/><path class="cls-3" d="M636.5,719.17l-63.89-69.55c-17.89-19.47-50.74-26.92-73.38-16.62l-38.14,17.34c-26.09,11.87-30.53,39.69-9.9,62.14l13.94,15.18,59.21-26.92,45,49-59.2,26.93,15.74,17.14c20.63,22.45,58.5,31,84.6,19.16l38.14-17.34c22.63-10.3,26.48-34.43,8.59-53.91Z" transform="translate(526.72 0)"/><rect class="cls-4" x="448.02" y="628.05" width="52.85" height="59.87" transform="translate(657.43 -76.78) rotate(10.72)"/><rect class="cls-4" x="521.92" y="740.68" width="52.85" height="44.21" transform="translate(678.21 -88.7) rotate(10.72)"/><path class="cls-3" d="M645.48,682.41l-63.89-69.55c-17.89-19.47-50.74-26.91-73.38-16.62l-38.14,17.35c-26.09,11.86-30.53,39.68-9.9,62.13l13.94,15.19L533.32,664l45,49-59.2,26.92L534.85,757c20.63,22.45,58.5,31,84.6,19.16l38.14-17.34c22.63-10.29,26.48-34.43,8.59-53.9Z" transform="translate(526.72 0)"/><polyline class="cls-5" points="1172.21 682.41 1623.07 477.38 1578.07 428.4 1127.21 633.43"/><path class="cls-6" d="M989.25,439.71l31.09-14.14c11.07-5,27.12-1.39,35.87,8.13l37.07,40.35c8.74,9.52,6.86,21.31-4.2,26.34L1058,514.53c-11.06,5-27.12,1.4-35.87-8.12l-37.07-40.35C976.31,456.54,978.19,444.74,989.25,439.71Z" transform="translate(526.72 0)"/><polygon class="cls-7" points="991.86 727.66 1000.84 690.9 1060.04 663.98 1051.06 700.74 991.86 727.66"/><polygon class="cls-8" points="1127.21 776.41 1113.78 818.21 1175.33 795.6 1191.49 781.52 1191.49 752.59 1127.21 776.41"/><path class="cls-9" d="M1209,63H609.68c-36.62,0-66.31,21.46-66.31,47.93V209" transform="translate(526.72 0)"/><path class="cls-10" d="M796.13,183.42h508a123.4,123.4,0,0,1,123.4,123.4v77.6a0,0,0,0,1,0,0H672.72a0,0,0,0,1,0,0v-77.6A123.4,123.4,0,0,1,796.13,183.42Z"/><rect class="cls-11" x="743.82" y="232.97" width="393.82" height="101.91" rx="50.95" ry="50.95"/><rect class="cls-11" x="1149.72" y="50.31" width="603.14" height="12.69" rx="6.34" ry="6.34"/><path d="M1014.81,455.25l15.17-6.9c5.4-2.46,13.23-.68,17.5,4L1065.57,472c4.26,4.65,3.35,10.4-2,12.86l-15.17,6.89c-5.4,2.46-13.23.68-17.5-4l-18.09-19.69C1008.5,463.46,1009.41,457.7,1014.81,455.25Z" transform="translate(526.72 0)"/><path d="M636.64,888.11l-64.8-28.61c-18.14-8-51.46-11.07-74.41-6.84l-38.68,7.14c-26.47,4.88-31,16.32-10.05,25.56l14.15,6.24,60-11.07,45.62,20.15-60,11.07,16,7c20.92,9.24,59.33,12.77,85.79,7.89l38.68-7.14c23-4.23,26.86-14.16,8.72-22.17Z" transform="translate(526.72 0)"/><polyline points="1163.36 888.11 1620.59 803.77 1574.96 783.62 1117.73 867.96"/><path d="M985.26,788.27l31.53-5.82c11.22-2.07,27.51-.57,36.38,3.35l37.59,16.6c8.87,3.91,7,8.76-4.26,10.83L1055,819.05c-11.22,2.07-27.5.57-36.37-3.34L981,799.11C972.13,795.19,974,790.34,985.26,788.27Z" transform="translate(526.72 0)"/><rect class="cls-12" x="1300.72" y="21" width="488" height="132"/></svg>